<?xml version="1.0" encoding="utf-8"?>
<!-- Generator: Adobe Illustrator 16.0.0, SVG Export Plug-In . SVG Version: 6.00 Build 0)  -->
<!DOCTYPE svg PUBLIC "-//W3C//DTD SVG 1.1//EN" "http://www.w3.org/Graphics/SVG/1.1/DTD/svg11.dtd">
<svg version="1.1" id="Capa_1" xmlns="http://www.w3.org/2000/svg" xmlns:xlink="http://www.w3.org/1999/xlink" x="0px" y="0px"
	 width="431.972px" height="431.972px" viewBox="0 0 431.972 431.972" enable-background="new 0 0 431.972 431.972"
	 xml:space="preserve">
<g>
	<path fill="#FFC715" d="M394.146,14.279c-3.713-5.333-8.713-9.233-14.988-11.707c-3.998-1.711-8.188-2.568-12.566-2.568V0H67.378
		c-4.377,0-8.562,0.857-12.56,2.568C48.538,5.04,43.54,8.945,39.829,14.275c-3.71,5.33-5.568,11.228-5.568,17.701v368.02
		c0,6.475,1.858,12.371,5.568,17.705c3.711,5.33,8.709,9.232,14.989,11.705c3.994,1.711,8.183,2.564,12.56,2.564
		c8.949,0,16.844-3.141,23.698-9.418l125.91-121.061l125.91,121.064c6.662,6.08,14.563,9.127,23.695,9.127
		c4.76,0,8.947-0.756,12.564-2.279c6.275-2.471,11.275-6.375,14.988-11.711c3.711-5.328,5.564-11.225,5.564-17.699V31.98
		C399.71,25.507,397.851,19.609,394.146,14.279z"/>
</g>
</svg>
